Patient4_TMGait_0pt8_01_left_37_EMG.mot
version=1
nRows=34
nColumns=33
inDegrees=no
endheader
time	1LAddLong	2LGlutMax	3LGlutMed	4LIliopsoas	5LSemiMemb	6LBicFemLong	7LRecFem	8LVastMed	9LVastLat	10LGasMed	11LTibAnt	12lTibPost	13LPeroneusLong	14LSol	15LExtDigLong	16LFlexDigLong	17RAddLong	18RGlutMax	19RGlutMed	20RIliopsoas	21RSemiMemb	22RBicFemLong	23RRecFem	24RVastMed	25RVastLat	26RGasMed	27RTibAnt	28RTibPost	29RPeroneusLong	30RSol	31RExtDigLong	32RFlexDigLong
41.695	0.011139	0.24094	0.28763	0.005341	0.038605	-0.041656	-0.26062	-0.010681	-0.010681	0.067139	-0.008087	0.17716	-0.1564	0.22415	0.032806	0.21133	0.050354	0.032654	1.4061	-0.00061	-0.27069	0.001984	-0.04425	-0.18829	-0.12833	-0.032196	0.046692	-0.006104	0.11856	0.024261	0.000763	-0.014191
41.696	0.00824	0.27878	0.27008	0.015106	0.066528	-0.014496	-0.26504	-0.005188	-0.013428	0.57327	-0.004578	0.19531	0.028839	0.67093	-0.009766	0.31769	0.00061	0.019836	1.1493	-0.016785	0.1886	0.067749	-0.011749	-0.27329	-0.21255	-0.030823	0.04303	-0.002136	-0.1149	0.060883	0.000916	-0.016632
41.697	0.006409	0.31632	0.24628	0.005646	0.033569	0.017853	-0.24216	-0.013885	-0.014496	0.3923	0	0.091858	0.224	-0.10803	-0.070801	0.072784	0.012817	0.053253	0.76981	-0.05249	0.7045	-0.02182	0.012054	-0.16434	-0.242	-0.025635	0.045929	0.001678	-0.40482	0.003357	0.002441	-0.018616
41.698	0.007477	0.3096	0.23254	-0.00061	0.036926	0.02594	-0.26871	-0.016327	-0.021362	0.62744	-0.002747	-0.19882	0.004578	-0.53497	-0.13153	-0.12131	0.048676	0.016174	0.42252	-0.036011	0.51392	0.13046	0.095367	-0.14313	-0.20798	-0.023193	0.037384	0.001831	-0.034332	-0.015717	0.000458	-0.009766
41.699	0.011749	0.29343	0.233	0.015717	0.013428	0.042419	-0.28427	-0.001068	-0.018005	0.35309	-0.001373	0.03067	0.00885	-0.31448	-0.083313	-0.098724	0.032043	-0.030975	0.29526	-0.019226	0.63812	0.14465	0.010986	-0.06546	-0.18585	-0.018005	0.027161	-0.001221	0.26001	-0.071411	0.001831	-0.010986
41.7	0.002289	0.31708	0.22125	-0.005646	0.00946	0.076294	-0.28427	-0.010529	-0.024109	0.38834	-0.006561	-0.001984	0.2243	0.19684	-0.053101	-0.037079	0.006104	-0.026703	0.93124	0.014954	0.56046	0.092163	0.14297	-0.1384	-0.20142	-0.023804	0.13763	-0.002441	0.12009	-0.054779	-0.000763	0.003052
41.701	0.005493	0.3157	0.21698	0.003052	-0.010529	0.019684	-0.29953	-0.013428	-0.019989	0.78079	0.00351	-0.05188	0.10223	-0.31952	-0.069427	0.006104	-0.001526	-0.069275	0.93338	0.012207	0.071106	0.10361	0.31845	0.40009	-0.17792	-0.02533	0.20676	-0.000305	-0.14313	-0.053406	-0.000153	-0.005035
41.702	0.00473	0.33905	0.21194	0.003662	-0.023346	-0.005341	-0.27634	-0.005341	-0.01709	0.78339	0.008545	-0.0914	-0.081482	-0.63965	-0.027618	-0.032349	-0.039978	-0.068817	1.275	0.050201	-0.053406	0.26474	0.33554	0.27893	-0.18646	-0.028534	0.26871	-0.003204	-0.36392	-0.068359	0.000458	-0.001526
41.703	0.001984	0.36743	0.24048	0.004883	-0.0177	-0.028687	-0.29587	-0.015869	-0.020142	0.41657	-0.004883	0.008698	-0.066223	0.04715	-0.019684	-0.062714	-0.079803	-0.06073	1.4325	0.007935	-0.021973	0.3949	0.049744	0.39124	-0.19211	-0.023346	0.24139	-0.003662	-0.23468	-0.079803	0.000458	-0.004272
41.704	0.014038	0.37186	0.1889	0.004425	-0.002899	-0.053406	-0.28778	-0.009155	-0.003662	-0.56656	0.003662	0.018158	-0.027466	0.14847	-0.056305	-0.053253	-0.13626	-0.058441	1.3493	-0.013275	0.10346	0.50003	-0.58762	0.49088	0.29862	-0.018311	0.018005	-0.003662	-0.4155	-0.06424	0.001068	-0.003052
41.705	0.007935	0.37033	0.18845	0.014954	-0.003967	-0.027008	-0.27405	-0.012054	-0.01358	-0.74249	0.010071	0.027771	-0.083466	0.034485	-0.036774	-0.014954	-0.20905	-0.086212	0.95978	-0.012665	0.63767	0.50384	-0.94696	0.2626	0.97824	-0.018768	-0.15717	-0.007172	-0.086823	-0.057068	0	-0.001068
41.706	0.004578	0.30579	0.19943	0.002747	-0.006256	-0.055084	-0.28229	-0.007172	-0.019989	-0.44586	0.012207	0.030823	-0.1358	0.25207	-0.011597	0.026093	-0.17853	-0.10803	0.77621	-0.009613	0.66589	0.47852	-0.7988	-0.066528	1.1716	-0.019836	-0.052643	-0.002899	1.1351	-0.099335	0.000458	0.001526
41.707	0.000916	0.30807	0.19623	-0.004578	-0.021057	-0.049744	-0.28778	-0.004883	-0.009613	-0.13763	-0.001068	0.013123	-0.009155	0.50522	0.011597	0.08667	-0.14023	-0.17914	0.60684	-0.003052	0.62164	0.54779	-0.67139	-0.10712	1.064	-0.018616	-0.066528	-0.007629	0.69061	-0.14404	0.000916	-0.002594
41.708	0.004883	0.31952	0.19989	0.00946	-0.019531	-0.071716	-0.29175	-0.019073	-0.001068	0.007019	0.003357	0.019531	0.005188	0.19028	0.019836	0.028687	-0.12131	-0.2002	0.51148	0.049591	0.67856	0.46326	-0.69305	-0.18677	1.176	-0.023651	-0.11658	-0.011749	0.23407	-0.081024	0.001678	-0.004425
41.709	0.010071	0.31036	0.18204	0.022583	0.000305	-0.10132	-0.29373	-0.019989	-0.005341	-0.28748	0.011597	0.023041	-0.028687	0.2063	0.006104	-0.017395	-0.13901	-0.24338	0.63812	0.079346	0.4277	0.32593	-0.58334	-0.087585	0.77988	-0.022888	-0.099335	-0.006256	0.495	-0.12497	-0.000305	-0.003815
41.71	0.010223	0.30914	0.18387	0.012817	0.021515	-0.089722	-0.28	-0.011749	-0.015564	-0.27695	0.014343	0.020294	-0.038605	0.1152	0.014191	-0.002747	-0.095367	-0.50949	0.85831	0.070953	0.35446	0.25971	-0.44586	0.11459	0.037689	-0.012512	-0.18738	-0.008698	0.39749	-0.1384	-0.001373	-0.000305
41.711	0.00946	0.27802	0.1947	0.005035	0.048523	-0.020599	-0.27847	-0.007019	0.002289	-0.12848	0.003357	0.018463	-0.041504	0.027466	0.009918	-0.002289	-0.06073	-0.63416	0.62286	0.10086	0.36514	0.41885	-0.40649	0.065002	-0.50812	-0.005951	-0.061493	-0.008087	-0.85739	-0.1329	-0.001526	-0.00946
41.712	0.011749	0.24857	0.20752	0.004272	0.031128	0.15488	-0.26367	-0.014191	0.014648	-0.044098	0	0.009918	-0.004883	0.09201	0.021362	0.004425	-0.064087	-0.75272	0.48172	0.039368	0.26199	0.55908	-0.53177	0.000458	-0.59982	-0.011292	0.099792	-0.010223	-0.98755	-0.10544	-0.00061	-0.010986
41.713	0.005341	0.28793	0.18997	0.010834	0.000458	0.15488	-0.23941	-0.010834	0.006256	0.016327	0.003357	0.021667	0.015869	0.18982	0.026703	-0.059052	-0.073242	-0.62714	0.63171	0.006561	0.4129	0.61188	-0.73334	0.084839	-0.37537	-0.016785	0.33905	-0.005951	-0.55206	-0.038452	-0.000916	-0.012054
41.714	0.006256	0.30624	0.17029	-0.007172	-0.010376	0.023041	-0.25757	-0.010986	0.00412	0.36224	0.001678	0.019989	0.003357	0.20432	0.021667	-0.093231	-0.035095	-0.43091	0.61966	0.033417	0.37384	0.57327	-0.77866	0.029449	-0.401	-0.020142	0.50293	-0.010834	0.037689	-0.006104	0.001526	-0.005188
41.715	0.011749	0.20309	0.19104	0.000763	-0.007019	-0.060272	-0.23834	-0.009308	-0.008545	0.1683	-0.007019	0.022888	0.023499	0.10941	0.042572	-0.056458	0.058289	-0.29388	0.2858	0.091553	0.15747	0.35645	-0.3688	-0.14526	-0.53787	-0.018768	0.45944	-0.00885	0.3804	-0.18707	-0.000458	-0.002747
41.716	0.012512	0.16144	0.16983	0.028381	0.011749	-0.095367	-0.22553	-0.007019	-0.002136	-0.62393	0.009918	0.02243	-0.001984	0.082245	0.020905	0.046844	0.18112	-0.19577	0.052032	0.047302	-0.034637	0.18921	-0.09201	-0.34225	-0.52719	-0.018921	0.15381	-0.014038	0.17532	-0.20035	0.002289	0.000458
41.717	0.013428	0.1535	0.18799	0.018463	0.0177	-0.009308	-0.2446	-0.011139	0.000916	-0.44861	0.00885	0.02594	-0.018005	0.1178	0.004425	0.059052	0.21439	-0.13672	0.030823	-0.09613	0.021973	0.18997	-0.16892	-0.33035	-0.34012	-0.017395	-0.34775	-0.00473	-0.22018	-0.067291	0.001526	0.009918
41.718	0.015411	0.14664	0.14893	0.005035	0.016632	0.003967	-0.22644	-0.008545	0.014954	-0.24353	0.014954	0.02182	-0.053406	0.14725	-0.005188	0.042267	0.14877	-0.11231	0.10391	-0.18387	0.20767	0.35202	-0.3978	-0.09613	-0.31357	-0.015259	-0.62851	-0.001678	-0.62759	-0.012665	0.000305	-0.003662
41.719	0.00946	0.15854	0.21805	0.009766	0.007629	-0.044098	-0.22964	-0.016937	0.022583	-0.047302	0.019836	0.020142	-0.078125	0.1471	0.01236	0.029144	-0.020142	-0.054016	-0.21057	-0.159	0.10941	0.52063	-0.52383	0.3746	-0.33875	-0.012817	-0.49805	-0.005188	-0.33112	-0.087585	0.012054	-0.001373
41.72	0.015564	0.19623	0.22583	-0.012207	0.009155	-0.054932	-0.19592	-0.00946	0.021362	0.19241	0.012817	0.023041	-0.059052	0.14587	0.022278	-0.005188	-0.071106	-0.027771	-0.31998	-0.059204	0.32501	0.74646	-0.54367	0.53925	-0.43976	-0.016479	-0.26855	-0.009308	0.97229	-0.044708	0.000458	-0.002594
41.721	0.01709	0.19516	0.21942	0.000763	0.007629	-0.038605	-0.19714	-0.02121	0.009003	0.53009	0.012207	0.028687	-0.07843	0.099335	0.012512	-0.00885	-0.046844	-0.038757	-0.66238	0.062866	0.60791	0.76324	-0.37659	0.48553	-0.39612	-0.018311	-0.024261	-0.012054	1.8599	-0.036926	0.000153	-0.008545
41.722	0.007629	0.15457	0.21973	0.010223	-0.002899	-0.003967	-0.19531	-0.009918	0.009918	0.69778	0.016785	0.027771	-0.054932	0.03006	0.028687	-0.017548	0.053406	-0.076599	0.14786	0.1593	0.46036	0.76569	-0.32928	0.30655	0.14496	-0.013885	0.002594	-0.009308	1.0088	-0.018158	-0.005493	-0.011597
41.723	0.00824	0.10956	0.23071	0.001831	-0.018616	0.057526	-0.18539	-0.013428	0.003204	0.5423	-0.003052	0.039825	0.011292	-0.015411	0.058899	-0.021515	0.15381	-0.093994	0.81848	0.27359	0.44083	0.77347	-0.4187	0.032806	0.71671	-0.009613	0.062561	-0.007172	0.5365	-0.026093	-0.00473	-0.010986
41.724	0.006104	0.076294	0.2298	0.001221	-0.028534	0.09552	-0.16068	-0.015106	-0.001068	-0.18326	-0.029144	0.046844	0.17761	0.042114	0.050049	-0.009613	0.22125	-0.1651	0.38208	0.25269	0.27283	0.60821	-0.44754	-0.31509	0.80368	-0.010986	0.092316	-0.010071	0.50919	-0.005493	-0.004578	-0.009308
41.725	0.006256	0.11353	0.24231	-0.00824	-0.037231	0.095062	-0.16586	-0.010986	0.005035	-0.56686	-0.037079	0.0177	0.11002	0.046082	0.030518	-0.005646	0.19455	-0.18295	-0.019989	0.1265	-0.18509	0.62241	-0.3241	-0.54428	0.53909	-0.016937	0.090332	-0.002136	0.034637	-0.014191	-0.001678	-0.016022
41.726	0.005188	0.13412	0.26215	0.008698	-0.044098	0.065613	-0.1387	-0.015717	0.016174	-0.20889	-0.023041	-0.030212	0.03952	0.081024	-0.005798	-0.004425	0.021515	-0.052643	0.95566	-0.022583	-0.059814	0.73807	-0.33905	-0.39642	0.22858	-0.010376	0.035858	-0.007935	-0.25864	-0.078583	-0.000305	-0.016632
41.727	0.014038	0.15579	0.25803	0.008698	-0.04837	0.027161	-0.11719	-0.010223	0.007172	-0.23636	-0.020294	0.023193	0.1033	0.084991	-0.054932	0.007324	-0.11734	0.053101	1.5549	-0.061798	0.38361	0.9108	-0.40482	-0.22354	0.009155	-0.010376	-0.16876	-0.007477	-0.45151	-0.074615	-0.000763	-0.02594
41.728	0.019836	0.11429	0.26245	0.018311	-0.037537	0.00885	-0.10712	-0.006104	0.009155	-0.12909	-0.006409	0.035553	0.21378	-0.058136	-0.068359	-0.005493	-0.13321	0.047913	0.98343	-0.103	0.26779	0.91751	-0.45548	-0.21866	-0.15366	-0.001678	0.003357	-0.007477	-0.48202	-0.063171	0	-0.019836
